<svg width="30" height="30" viewBox="0 0 30 30" fill="none" xmlns="http://www.w3.org/2000/svg">
<path d="M30.0241 29.218L26.9156 7.42086C26.8487 7.03784 26.5479 6.7941 26.1802 6.7941H21.5006V6.65482C21.5006 2.99874 18.6595 0.0390625 15.1498 0.0390625H14.849C11.3393 0.0390625 8.49815 2.99874 8.49815 6.65482V6.82892H4.48709C4.11941 6.82892 3.81858 7.07266 3.75173 7.45568L0.00808216 29.2529C-0.0921942 29.7055 0.24206 30.0885 0.710017 30.0885H29.3556C29.7567 30.0537 30.091 29.6359 30.0241 29.218ZM10.0023 6.62C10.0023 3.83442 12.1749 1.57113 14.849 1.57113H15.1498C17.8238 1.57113 19.9965 3.83442 19.9965 6.62V6.7941H10.0023V6.62Z" fill="#979797"/>
</svg>
