<svg width="30" height="30" viewBox="0 0 30 30" fill="none" xmlns="http://www.w3.org/2000/svg">
<path d="M30 28.5018L22.4299 20.7967C24.1472 18.6207 25.1636 15.8383 25.1636 12.8062C25.1636 5.74316 19.521 0 12.5818 0C5.64252 0 0 5.74316 0 12.8062C0 19.8692 5.64252 25.6124 12.5818 25.6124C15.8061 25.6124 18.75 24.3639 20.9579 22.3306L28.493 30L30 28.5018ZM12.5818 23.4721C6.79907 23.4721 2.1028 18.692 2.1028 12.8062C2.1028 6.92033 6.79907 2.14031 12.5818 2.14031C18.3645 2.14031 23.0607 6.92033 23.0607 12.8062C23.0607 18.692 18.3645 23.4721 12.5818 23.4721Z" fill="#979797"/>
</svg>
