<?xml version="1.0" encoding="utf-8"?>
<!-- Generator: Adobe Illustrator 21.1.0, SVG Export Plug-In . SVG Version: 6.00 Build 0)  -->
<svg version="1.1" id="Layer_1" xmlns="http://www.w3.org/2000/svg" xmlns:xlink="http://www.w3.org/1999/xlink" x="0px" y="0px"
	 viewBox="0 0 92 88" style="enable-background:new 0 0 92 88;" xml:space="preserve">
<style type="text/css">
	.st0{fill:#FFFFFF;}
</style>
<g>
	<path class="st0" d="M90.9,84.7l-9.3-62.6c-0.2-1.1-1.1-1.8-2.2-1.8h-14v-0.4c0-10.5-8.5-19-19-19h-0.9c-10.5,0-19,8.5-19,19v0.5
		h-12c-1.1,0-2,0.7-2.2,1.8L1.1,84.8c-0.3,1.3,0.7,2.4,2.1,2.4h85.7C90.1,87.1,91.1,85.9,90.9,84.7z M31,19.8
		c0-8,6.5-14.5,14.5-14.5h0.9c8,0,14.5,6.5,14.5,14.5v0.5H31L31,19.8z M63.2,35.8"/>
</g>
</svg>
