<?xml version="1.0" encoding="utf-8"?>
<!-- Generator: Adobe Illustrator 21.1.0, SVG Export Plug-In . SVG Version: 6.00 Build 0)  -->
<svg version="1.1" id="Layer_1" xmlns="http://www.w3.org/2000/svg" xmlns:xlink="http://www.w3.org/1999/xlink" x="0px" y="0px"
	 viewBox="0 0 44 43.3" style="enable-background:new 0 0 44 43.3;" xml:space="preserve">
<style type="text/css">
	.st0{fill:none;stroke:#FFFFFF;stroke-width:2;stroke-miterlimit:10;}
	.st1{fill:#FFFFFF;}
</style>
<circle class="st0" cx="21.4" cy="22" r="19.4"/>
<g>
	<path class="st1" d="M34,28.4c0-0.1-0.1-0.1-0.1-0.2c-0.5-0.9-1.4-1.9-2.7-3.2l0,0l0,0l0,0h0c-0.6-0.6-1-1-1.2-1.2
		c-0.3-0.4-0.4-0.8-0.2-1.2c0.1-0.3,0.5-0.9,1.3-1.9c0.4-0.5,0.7-0.9,0.9-1.2c1.7-2.2,2.4-3.6,2.2-4.2L34,15.1
		c-0.1-0.1-0.2-0.2-0.4-0.2c-0.2-0.1-0.5-0.1-0.9,0l-4.1,0c-0.1,0-0.2,0-0.3,0c-0.1,0-0.2,0-0.2,0L28,15l-0.1,0c0,0-0.1,0.1-0.2,0.2
		c-0.1,0.1-0.1,0.2-0.1,0.3c-0.5,1.2-1,2.2-1.5,3.2c-0.4,0.6-0.7,1.1-1,1.5c-0.3,0.4-0.5,0.8-0.7,1c-0.2,0.2-0.4,0.4-0.5,0.5
		c-0.2,0.1-0.3,0.2-0.4,0.2c-0.1,0-0.2,0-0.2-0.1c-0.1-0.1-0.2-0.2-0.3-0.4c-0.1-0.1-0.1-0.3-0.2-0.6c0-0.2,0-0.4-0.1-0.6
		c0-0.2,0-0.4,0-0.7c0-0.3,0-0.5,0-0.6c0-0.4,0-0.8,0-1.2c0-0.4,0-0.8,0-1c0-0.2,0-0.5,0-0.8s0-0.5-0.1-0.7c0-0.2-0.1-0.3-0.2-0.5
		c-0.1-0.1-0.2-0.3-0.3-0.3c-0.1-0.1-0.3-0.1-0.5-0.2c-0.5-0.1-1.2-0.2-1.9-0.2c-1.8,0-2.9,0.1-3.4,0.3c-0.2,0.1-0.4,0.2-0.5,0.4
		c-0.2,0.2-0.2,0.3-0.1,0.3c0.6,0.1,1,0.3,1.2,0.6l0.1,0.2c0.1,0.1,0.1,0.3,0.2,0.7c0.1,0.3,0.1,0.7,0.1,1.1c0,0.7,0,1.3,0,1.8
		c0,0.5-0.1,0.9-0.1,1.2c0,0.3-0.1,0.5-0.2,0.7c-0.1,0.2-0.1,0.3-0.2,0.3c0,0-0.1,0.1-0.1,0.1c-0.1,0-0.3,0.1-0.4,0.1
		c-0.1,0-0.3-0.1-0.5-0.2c-0.2-0.1-0.4-0.3-0.6-0.6c-0.2-0.2-0.4-0.6-0.7-1c-0.3-0.4-0.5-0.9-0.8-1.5l-0.2-0.4
		c-0.1-0.3-0.3-0.7-0.6-1.2c-0.2-0.5-0.5-1-0.7-1.5c-0.1-0.2-0.2-0.4-0.3-0.5l-0.1,0c0,0-0.1-0.1-0.2-0.1c-0.1,0-0.2-0.1-0.3-0.1
		l-3.9,0c-0.4,0-0.7,0.1-0.8,0.3l-0.1,0.1c0,0,0,0.1,0,0.2c0,0.1,0,0.2,0.1,0.4c0.6,1.4,1.2,2.7,1.9,3.9s1.3,2.3,1.8,3
		c0.5,0.8,1,1.5,1.5,2.2c0.5,0.7,0.9,1.1,1,1.3c0.2,0.2,0.3,0.3,0.4,0.4l0.4,0.3c0.2,0.2,0.6,0.5,1,0.8c0.4,0.3,0.9,0.6,1.5,1
		c0.5,0.3,1.2,0.6,1.9,0.8c0.7,0.2,1.4,0.3,2.1,0.2h1.7c0.3,0,0.6-0.1,0.8-0.3l0.1-0.1c0-0.1,0.1-0.1,0.1-0.3c0-0.1,0.1-0.3,0.1-0.4
		c0-0.4,0-0.8,0.1-1.1c0.1-0.3,0.2-0.6,0.2-0.7c0.1-0.2,0.2-0.3,0.3-0.4c0.1-0.1,0.2-0.2,0.2-0.2c0,0,0.1,0,0.1-0.1
		c0.2-0.1,0.5,0,0.8,0.2c0.3,0.2,0.6,0.5,0.9,0.8c0.3,0.3,0.6,0.7,1,1.1c0.4,0.4,0.7,0.7,1,0.9l0.3,0.2c0.2,0.1,0.4,0.2,0.7,0.3
		c0.3,0.1,0.6,0.1,0.8,0.1l3.7-0.1c0.4,0,0.6-0.1,0.8-0.2c0.2-0.1,0.3-0.3,0.4-0.4c0-0.1,0-0.3,0-0.5C34.1,28.6,34.1,28.5,34,28.4z"
		/>
</g>
</svg>
