<?xml version="1.0" encoding="utf-8"?>
<!-- Generator: Adobe Illustrator 21.1.0, SVG Export Plug-In . SVG Version: 6.00 Build 0)  -->
<svg version="1.1" id="Layer_1" xmlns="http://www.w3.org/2000/svg" xmlns:xlink="http://www.w3.org/1999/xlink" x="0px" y="0px"
	 viewBox="0 0 44 43.3" style="enable-background:new 0 0 44 43.3;" xml:space="preserve">
<style type="text/css">
	.st0{fill:none;stroke:#FFFFFF;stroke-width:2;stroke-miterlimit:10;}
	.st1{fill:#FFFFFF;}
</style>
<circle class="st0" cx="22" cy="21.5" r="19.4"/>
<path class="st1" d="M22.3,9.2c-6.8,0-10.3,4.3-10.3,9c0,2.2,1.2,4.9,3.2,5.8c0.6,0.3,0.5-0.1,1-1.9c0-0.2,0-0.3-0.1-0.4
	c-2.8-3.2-0.5-9.9,5.9-9.9c9.3,0,7.6,12.9,1.6,12.9c-1.5,0-2.7-1.2-2.3-2.7c0.4-1.8,1.3-3.7,1.3-5c0-3.2-4.8-2.8-4.8,1.5
	c0,1.3,0.5,2.2,0.5,2.2s-1.5,6.3-1.8,7.4c-0.5,2,0.1,5.2,0.1,5.5c0,0.2,0.2,0.2,0.3,0.1c0.2-0.2,2-2.9,2.6-4.8c0.2-0.7,1-3.6,1-3.6
	c0.5,0.9,2,1.7,3.6,1.7c4.7,0,8.1-4.1,8.1-9.3C32,12.9,27.8,9.2,22.3,9.2L22.3,9.2z"/>
</svg>
