<svg width="185" height="37" viewBox="0 0 185 37" fill="none" xmlns="http://www.w3.org/2000/svg">
<path d="M33 30.5425L24.9252 22.3237C26.757 20.0027 27.8411 17.0348 27.8411 13.8006C27.8411 6.26667 21.8224 0.140625 14.4206 0.140625C7.01869 0.140625 1 6.26667 1 13.8006C1 21.3344 7.01869 27.4605 14.4206 27.4605C17.8598 27.4605 21 26.1287 23.3551 23.9599L31.3925 32.1406L33 30.5425ZM14.4206 25.1775C8.25234 25.1775 3.24299 20.0788 3.24299 13.8006C3.24299 7.52231 8.25234 2.42362 14.4206 2.42362C20.5888 2.42362 25.5981 7.52231 25.5981 13.8006C25.5981 20.0788 20.5888 25.1775 14.4206 25.1775Z" fill="white"/>
<path d="M0 35.9541L185 35.9541" stroke="white" stroke-width="2"/>
</svg>
