<?xml version="1.0" encoding="utf-8"?>
<!-- Generator: Adobe Illustrator 21.1.0, SVG Export Plug-In . SVG Version: 6.00 Build 0)  -->
<svg version="1.1" id="Layer_1" xmlns="http://www.w3.org/2000/svg" xmlns:xlink="http://www.w3.org/1999/xlink" x="0px" y="0px"
	 viewBox="0 0 1223 331" style="enable-background:new 0 0 1223 331;" xml:space="preserve">
<g id="Layer_2_2_">
	<path d="M1209.6,199c-1.7-0.9-27-16.9-141.5,6.9c-89.5,18.6-102.6,16.7-106.2,14.4c-5.4-3.4-7.1-5.4-6-10.9
		c5.6-28.3,53.8-49.9,107.3-76.4c9.4-4.7,19.9-10.5,21.8-18.4c3.4-14.1-14.3-36-17.3-40.9c-0.6-0.8-2.1-4.5-1.3-4.9
		c17.3-9.9,63.2-35.6,59.9-52.9c-0.8-4.1-0.4-9.2-11.8-10.7c-3.2-0.4-6.2-0.6-9.2,0c-1.9,0.4-39,9.6-50.1,37.5
		c-6.2,15.4-2.8,17.6-3.2,20.5c-0.2,1.1-6.9,4.9-7.9,5.4c-38.7,21.2-73.5,40-94,46.9c-4.3,1.5-11.3,4.3-11.4,4.1
		c-2.3-2.4,11.8-10.5,22.5-18.8c0.6-0.6,4.9-5.1,5.1-5.3c0.9-2.4,1.9-5.1-2.3-8.8c-5.1-4.7-19,7.7-19.3,7.9
		c-7.5,5.3-17.1,17.6-61.9,42c-0.2,0-2.8,1.9-3,1.9c-2.4-1.5,12.2-10.3,31.9-31.1c1.7-1.9-0.4-5.4-1.3-6.8c-0.8-0.9-5.1-2.3-6.9-1.5
		c-0.4,0.2-27.6,18.6-69.8,44.3c-0.4,0.2-1.1,0.4-1.3,0.2c-1.5-1.5,18.8-19.5,28.1-31.1c1.5-1.7,0.6-5.4-1.1-7.1
		c-1.5-1.3-3.8-2.3-6.4-1.5c-0.2,0-22.7,17.4-70.5,44.7c-0.9,0.6-3.4,1.3-3,0.4c1.3-3.4,12.8-12.6,27-27.8c1.5-1.5-0.4-5.4-1.9-6.9
		c-1.1-1.1-4.9-3.6-7.3-1.7c-3.9,2.8-62.1,40.3-64,40c-2.6-0.8,14.1-16.1,28-28c1.5-1.3,2.1-3.9,0-6.9c-2.8-3.9-6.9-3.4-8.3-2.1
		c-6.4,6.9-70.4,45.6-74.7,46.3c-5.1,0.9,20.8-19,29.5-28.7c1.5-1.7,5.4-3.4,0.8-8.6c-3.8-4.3-7.1-1.7-8.6-0.6
		c-40.9,29.5-61.5,42.6-62.7,43.3c-2.3,1.3-10.9,8.1-10.9,5.8c0-2.1,23.8-20.1,37.3-33.6c1.7-1.7,1.7-5.3,0.2-7.1s-4.9-3.8-9.8-0.6
		c-66.6,44.5-79.7,48.8-82.2,49.7c-0.6,0.2-1.7,0.9-2.3,1.1c-0.9,0.2-2.3,0.2-2.1-0.4c3.2-5.8,12.9-15.9,19.5-21.2
		c1.5-1.1,9-7.1,4.3-12.2c-3.4-3.8-6.2-2.4-8.1-1.5c-76.9,39.2-106.9,49.7-107.5,48.4c-1.3-3.9,32.1-25.9,95.7-44.8
		c3-0.9,4.7-5.1,3.9-8.1c-0.8-3-3.9-4.7-6.9-3.9c-9.8,2.6-91.6,27.4-106.8,54.4c-0.4,0.6-1.5,1.9-2.4,1.7
		c-35.3-2.3-73.5-5.1-90.4-3.6c-4.9,0.4,95.7-34.7,139.2-88.2c12.4-15.2,14.4-35.8,6.2-45.4c-18.4-21.6-60.6-19.9-81.6-18.8
		c-2.8,0.2,13.5-12.8,13.7-12.9c2.8-2.6,3.9-8.4,2.6-10.1c-1.9-2.4-7.1-2.3-9.4-0.2c-0.2,0.2-8.1,7.1-26.6,24.4
		c-140,21-249.9,78.2-310,118.4c-65.5,43.7-91.9,77.9-93.1,79.4c-1.9,2.4-1.5,6,0.9,7.9s6,1.5,7.9-0.9c0.4-0.4,27.6-34,91.6-76.7
		C167,130.5,293.6,66.5,396.8,55.1c2.8-0.4-31.9,29.8-67,64.2c-39.6,38.8-80.3,82.4-83.3,82.9c-36.8,8.1-93.8,22.5-102.3,36.2
		c-3.9,6.4-1.9,10.7-0.4,12.6c1.9,2.4,5.3,4.5,13.3,4.5c6.9,0,17.3-1.5,33.2-5.4c7.1-1.7,17.1-7.5,18.6-6
		c0.8,0.8-32.3,31.7-52.3,69.4c-1.5,2.8-2.8,6.4-1.1,9.2c0.6,0.9,3.2,2.8,4.3,2.8c1.9,0,4.5-1.1,6.2-3.8
		c23.8-39.2,47.7-63.8,64.4-83.3c13.7-4.1,85.2-26.3,101.1-33.2c9.8-4.3,80.7-3.2,127.4,1.5c0.9,0,2.3,0.4,3.2,0.8
		c0.6,0.2,2.1,0.6,2.6,0.8c19,6.9,86.3-34.5,93.8-35.1c1.3-0.2-7.5,10.9-3.9,17.8c2.3,4.3,7.1,6.4,14.4,4.1
		c1.9-0.6,6.6-1.5,17.3-7.1c5.8-3.2,18-11.4,19-9.9c0.4,0.6-2.4,3.2-2.6,5.4c-0.6,6,2.6,10.3,9.9,9.4c5.6-0.8,12.9-5.3,19.1-8.3l0,0
		c2.1-0.9,19.9-13.9,20.6-13.7c1.3,0.4-1.7,8.8,6,10.7c5.1,1.1,10.5-1.5,26.1-9.8c4.3-2.3,26.1-15.6,27-14.6
		c1.3,1.5-9.6,9.8-4.5,15.6c5.6,6.6,14.6,0.4,29.5-7.9c12.9-7.3,25.7-16.1,26.3-15.4c0.4,0.4-9.6,12-4.1,17.4
		c5.4,5.4,12.9,0.4,26.6-6.4c14.8-7.3,29.8-18.4,30.8-17.4c0.8,0.6-12.6,12.6-5.3,18.4c7.1,5.6,16.7-1.3,26.1-6.4
		c11.1-5.8,22.7-14.8,23.1-13.3c0.6,2.4-8.8,6.9-0.6,12.6c8.6,5.8,13.7,1.3,28.5-6.9c15-8.4,32.1-19.5,34.5-20.5
		c0.8-0.4,1.7-0.4,2.1,0.4c4.9,8.8,14.3,4.9,27.2,0.9c21.8-6.6,89.9-44.3,102.6-51.6c0.8-0.4,2.8,3,3.4,4.1
		c3.4,7.3,18,27.6,15.6,31.7c-2.8,4.5-17.4,10.7-23.6,14.3c-10.1,5.6-96.6,40.9-105.3,80.3c-2.8,12.9,3.2,20.3,11.4,23.8
		c3.9,1.7,13.1,3.2,22.1,3.8c16.7,0.9,52-6.9,96.1-16.7c98.5-21.6,128.7-8.3,129.1-8.1c2.8,1.3,9.9,4.5,10.7-2.6
		C1214.3,202.4,1212.6,200.5,1209.6,199z M205.5,232.8c-27.6,6.4-49.3,12.2-47.8,10.7c3.4-3.6,23.8-15.9,75.4-26.6
		c0.4,0-4.9,6.8-11.4,11.4C221,228.6,213.3,230.9,205.5,232.8z M245.6,221.3c2.4-2.8,3.2-3.8,3.2-3.8c2.1-2.1,3-2.6,5.6-3.9
		c5.1-2.6,9.2-2.6,15-3c5.3-0.4,13.1-3,13.1-2.1C282.4,210.6,257.2,217.6,245.6,221.3z M328.7,192.4c-22,1.1-42.2,3-60.6,5.3
		c68.3-69.8,119-119.5,151.4-146c22.3-2.6,71.7-5.3,83.5,12.9c4.3,6.8,4.5,15.4-3.4,28.1C477.3,129.2,397,166.3,328.7,192.4z
		 M1113.9,16c4.1-0.6-3.4,9.4-18.6,20.3c-18,12.8-30,21.4-31.3,20.3C1059.2,52.4,1083.2,20,1113.9,16z"/>
</g>
</svg>
