<svg width="32" height="32" viewBox="0 0 32 32" fill="none" xmlns="http://www.w3.org/2000/svg">
<path d="M31.9909 31.073L28.6798 7.86095C28.6086 7.45307 28.2881 7.19351 27.8965 7.19351H22.912V7.04519C22.912 3.1518 19.8857 0 16.1474 0H15.8269C12.0886 0 9.06228 3.1518 9.06228 7.04519V7.23059H4.78987C4.39823 7.23059 4.0778 7.49015 4.00659 7.89803L0.0190107 31.1101C-0.0877995 31.5921 0.268235 32 0.766683 32H31.2788C31.7061 31.9629 32.0621 31.518 31.9909 31.073ZM10.6644 7.00811C10.6644 4.04171 12.9787 1.63152 15.8269 1.63152H16.1474C18.9956 1.63152 21.3099 4.04171 21.3099 7.00811V7.19351H10.6644V7.00811Z" fill="#1B1B1B"/>
</svg>
