<svg width="32" height="33" viewBox="0 0 32 33" fill="none" xmlns="http://www.w3.org/2000/svg">
<path d="M32 30.5425L23.9252 22.3237C25.757 20.0027 26.8411 17.0348 26.8411 13.8006C26.8411 6.26667 20.8224 0.140625 13.4206 0.140625C6.01869 0.140625 0 6.26667 0 13.8006C0 21.3344 6.01869 27.4605 13.4206 27.4605C16.8598 27.4605 20 26.1287 22.3551 23.9599L30.3925 32.1406L32 30.5425ZM13.4206 25.1775C7.25234 25.1775 2.24299 20.0788 2.24299 13.8006C2.24299 7.52231 7.25234 2.42362 13.4206 2.42362C19.5888 2.42362 24.5981 7.52231 24.5981 13.8006C24.5981 20.0788 19.5888 25.1775 13.4206 25.1775Z" fill="#1B1B1B"/>
</svg>
